<svg width="378" height="380" viewBox="0 0 378 380" fill="none" xmlns="http://www.w3.org/2000/svg">
<path d="M377.607 189.748C377.607 294.543 293.077 379.495 188.804 379.495C84.5303 379.495 0 294.543 0 189.748C0 84.953 84.5303 0 188.804 0C293.077 0 377.607 84.953 377.607 189.748Z" fill="white"/>
<path d="M371.943 189.748C371.943 88.0545 289.922 5.66411 188.804 5.66411C87.6851 5.66411 5.66411 88.0545 5.66411 189.748C5.66411 291.441 87.6851 373.831 188.804 373.831V379.495C84.5303 379.495 0 294.543 0 189.748C0 84.953 84.5303 0 188.804 0C293.077 0 377.607 84.953 377.607 189.748C377.607 294.543 293.077 379.495 188.804 379.495V373.831C289.922 373.831 371.943 291.441 371.943 189.748Z" fill="#8B8B8B"/>
<path d="M167.326 110.843V272.839H132.463V110.843H167.326ZM224.268 109.914V119.675H75.5205V109.914H224.268ZM224.268 118.978V146.403L221.944 146.171V143.614C221.944 136.332 219.775 130.599 215.436 126.415C211.253 122.077 205.52 119.83 198.237 119.675V118.978H224.268ZM224.268 105.73V112.47L195.913 109.914C199.322 109.914 202.886 109.681 206.604 109.216C210.478 108.752 214.042 108.209 217.296 107.589C220.55 106.97 222.874 106.35 224.268 105.73ZM133.16 255.872V272.839H114.567V270.515C114.567 270.515 115.032 270.515 115.961 270.515C117.046 270.515 117.588 270.515 117.588 270.515C121.617 270.515 125.026 269.12 127.815 266.331C130.759 263.387 132.308 259.901 132.463 255.872H133.16ZM166.628 255.872H167.326C167.481 259.901 168.953 263.387 171.742 266.331C174.686 269.12 178.172 270.515 182.201 270.515C182.201 270.515 182.665 270.515 183.595 270.515C184.68 270.515 185.222 270.515 185.222 270.515V272.839H166.628V255.872ZM101.319 118.978V119.675C94.1914 119.83 88.4585 122.077 84.12 126.415C79.9365 130.599 77.8447 136.332 77.8447 143.614V146.171L75.5205 146.403V118.978H101.319ZM75.5205 105.73C77.07 106.35 79.3941 106.97 82.4931 107.589C85.7469 108.209 89.3107 108.752 93.1843 109.216C97.0579 109.681 100.622 109.914 103.876 109.914L75.5205 112.47V105.73Z" fill="black"/>
<path d="M242.198 200.672L285.983 260.381C288.546 263.707 291.164 266.258 293.838 268.032C296.512 269.695 299.576 270.582 303.029 270.693V272.356H289.326C288.1 272.356 286.039 272.301 283.142 272.19C280.357 272.079 277.182 271.635 273.616 270.859C270.051 270.083 266.43 268.752 262.754 266.867C259.188 264.872 256.069 262.1 253.395 258.551C252.838 257.775 251.724 256.278 250.052 254.061C248.381 251.843 246.432 249.182 244.203 246.077C241.975 242.973 239.635 239.813 237.184 236.597C234.845 233.271 232.616 230.166 230.499 227.283C228.383 224.4 226.656 222.072 225.319 220.298C224.093 218.413 223.48 217.47 223.48 217.47L242.198 200.672ZM284.145 157.096L233.842 216.472L223.48 217.47L269.438 157.096H284.145ZM295.843 155.932V157.428H295.175C291.498 157.428 288.044 158.205 284.813 159.757C281.694 161.198 279.02 163.139 276.792 165.578L263.255 165.246C264.592 163.361 264.815 161.586 263.923 159.923C263.032 158.26 261.472 157.428 259.244 157.428H257.573V155.932H295.175H295.843ZM218.133 155.932V272.356H193.065V155.932H218.133ZM193.566 260.215V272.356H180.196V270.693C180.308 270.693 180.642 270.693 181.199 270.693C181.867 270.693 182.257 270.693 182.369 270.693C185.266 270.693 187.717 269.695 189.722 267.699C191.839 265.592 192.953 263.098 193.065 260.215H193.566ZM193.566 168.073H193.065C192.953 165.19 191.839 162.751 189.722 160.755C187.717 158.648 185.266 157.595 182.369 157.595C182.257 157.595 181.867 157.595 181.199 157.595C180.642 157.595 180.308 157.595 180.196 157.595V155.932H193.566V168.073ZM217.631 260.215H218.133C218.244 263.098 219.302 265.592 221.308 267.699C223.425 269.695 225.931 270.693 228.828 270.693C228.94 270.693 229.274 270.693 229.831 270.693C230.499 270.693 230.889 270.693 231.001 270.693V272.356H217.631V260.215ZM217.631 168.073V155.932H231.001V157.595C230.889 157.595 230.499 157.595 229.831 157.595C229.274 157.595 228.94 157.595 228.828 157.595C225.931 157.595 223.425 158.648 221.308 160.755C219.302 162.751 218.244 165.19 218.133 168.073H217.631Z" fill="#8BCADE"/>
</svg>
